<svg width="14" height="18" viewBox="0 0 14 18" fill="none" xmlns="http://www.w3.org/2000/svg">
<path d="M2 0H12C12.5304 0 13.0391 0.189642 13.4142 0.527208C13.7893 0.864773 14 1.32261 14 1.8V16.2C14 16.6774 13.7893 17.1352 13.4142 17.4728C13.0391 17.8104 12.5304 18 12 18H2C1.46957 18 0.960859 17.8104 0.585786 17.4728C0.210714 17.1352 0 16.6774 0 16.2V1.8C0 1.32261 0.210714 0.864773 0.585786 0.527208C0.960859 0.189642 1.46957 0 2 0ZM2 1.8V5.4H12V1.8H2ZM2 7.2V9H4V7.2H2ZM6 7.2V9H8V7.2H6ZM10 7.2V9H12V7.2H10ZM2 10.8V12.6H4V10.8H2ZM6 10.8V12.6H8V10.8H6ZM10 10.8V12.6H12V10.8H10ZM2 14.4V16.2H4V14.4H2ZM6 14.4V16.2H8V14.4H6ZM10 14.4V16.2H12V14.4H10Z" fill="#C20C0C"/>
</svg>
