<svg width="23" height="23" viewBox="0 0 23 23" fill="none" xmlns="http://www.w3.org/2000/svg">
<g clip-path="url(#clip0_35_252)">
<path d="M3.28571 0.5C1.47344 0.5 0 1.97344 0 3.78571V20.2143C0 22.0266 1.47344 23.5 3.28571 23.5H19.7143C21.5266 23.5 23 22.0266 23 20.2143V3.78571C23 1.97344 21.5266 0.5 19.7143 0.5H3.28571ZM18.5386 4.8125L13.2096 10.9013L19.4781 19.1875H14.5701L10.7299 14.1614L6.33013 19.1875H3.89152L9.59018 12.6725L3.57835 4.8125H8.6096L12.0853 9.40737L16.1 4.8125H18.5386ZM16.598 17.7295L7.87545 6.19353H6.42254L15.2426 17.7295H16.5929H16.598Z" fill="white"/>
</g>
<defs>
<clipPath id="clip0_35_252">
<rect width="23" height="23" fill="white"/>
</clipPath>
</defs>
</svg>
