<svg width="16" height="16" viewBox="0 0 16 16" fill="none" xmlns="http://www.w3.org/2000/svg">
<path d="M2.66659 13.3334C2.29992 13.3334 1.98614 13.203 1.72525 12.9421C1.46436 12.6812 1.3337 12.3672 1.33325 12.0001V4.00008C1.33325 3.63341 1.46392 3.31964 1.72525 3.05875C1.98659 2.79786 2.30036 2.66719 2.66659 2.66675H13.3333C13.6999 2.66675 14.0139 2.79741 14.2753 3.05875C14.5366 3.32008 14.667 3.63386 14.6666 4.00008V12.0001C14.6666 12.3667 14.5361 12.6807 14.2753 12.9421C14.0144 13.2034 13.7004 13.3339 13.3333 13.3334H2.66659ZM7.99992 8.66675L2.66659 5.33341V12.0001H13.3333V5.33341L7.99992 8.66675ZM7.99992 7.33342L13.3333 4.00008H2.66659L7.99992 7.33342ZM2.66659 5.33341V4.00008V12.0001V5.33341Z" fill="#C20C0C"/>
</svg>
