<svg width="24" height="24" viewBox="0 0 24 24" fill="none" xmlns="http://www.w3.org/2000/svg">
<path d="M12.5931 23.2579L12.582 23.2599L12.511 23.2949L12.491 23.2989L12.477 23.2949L12.406 23.2599C12.3954 23.2566 12.3874 23.2583 12.382 23.2649L12.378 23.2749L12.361 23.7029L12.366 23.7229L12.376 23.7359L12.48 23.8099L12.495 23.8139L12.507 23.8099L12.611 23.7359L12.623 23.7199L12.627 23.7029L12.61 23.2759C12.6074 23.2653 12.6017 23.2593 12.5931 23.2579ZM12.858 23.1449L12.845 23.1469L12.66 23.2399L12.65 23.2499L12.647 23.2609L12.665 23.6909L12.67 23.7029L12.6781 23.7099L12.879 23.8029C12.8917 23.8063 12.9014 23.8036 12.908 23.7949L12.912 23.7809L12.878 23.1669C12.8747 23.1549 12.868 23.1476 12.858 23.1449ZM12.143 23.1469C12.1386 23.1443 12.1334 23.1434 12.1283 23.1445C12.1233 23.1456 12.1189 23.1487 12.116 23.1529L12.11 23.1669L12.076 23.7809C12.0767 23.7929 12.0824 23.8009 12.0931 23.8049L12.108 23.8029L12.309 23.7099L12.319 23.7019L12.323 23.6909L12.34 23.2609L12.337 23.2489L12.327 23.2389L12.143 23.1469Z" fill="white"/>
<path d="M13.5 21.888C18.311 21.164 22 17.013 22 12C22 6.477 17.523 2 12 2C6.477 2 2 6.477 2 12C2 17.013 5.689 21.165 10.5 21.888V15H9C8.60218 15 8.22064 14.842 7.93934 14.5607C7.65804 14.2794 7.5 13.8978 7.5 13.5C7.5 13.1022 7.65804 12.7206 7.93934 12.4393C8.22064 12.158 8.60218 12 9 12H10.5V10C10.5 9.07174 10.8687 8.1815 11.5251 7.52513C12.1815 6.86875 13.0717 6.5 14 6.5H14.5C14.8978 6.5 15.2794 6.65804 15.5607 6.93934C15.842 7.22064 16 7.60218 16 8C16 8.39782 15.842 8.77936 15.5607 9.06066C15.2794 9.34196 14.8978 9.5 14.5 9.5H14C13.8674 9.5 13.7402 9.55268 13.6464 9.64645C13.5527 9.74021 13.5 9.86739 13.5 10V12H15C15.3978 12 15.7794 12.158 16.0607 12.4393C16.342 12.7206 16.5 13.1022 16.5 13.5C16.5 13.8978 16.342 14.2794 16.0607 14.5607C15.7794 14.842 15.3978 15 15 15H13.5V21.888Z" fill="white"/>
</svg>
