<svg width="15" height="18" viewBox="0 0 15 18" fill="none" xmlns="http://www.w3.org/2000/svg">
<path d="M9.51667 5.31818L10.8333 8.18182H4.16667L5.35 5.31818H9.51667ZM5 9C4.54167 9 4.16667 9.36818 4.16667 9.81818C4.16667 10.2682 4.54167 10.6364 5 10.6364C5.45833 10.6364 5.83333 10.2682 5.83333 9.81818C5.83333 9.36818 5.45833 9 5 9ZM10 9C9.54167 9 9.16667 9.36818 9.16667 9.81818C9.16667 10.2682 9.54167 10.6364 10 10.6364C10.4583 10.6364 10.8333 10.2682 10.8333 9.81818C10.8333 9.36818 10.4583 9 10 9ZM15 3.27273V8.18182C15 12.7227 11.8 16.9691 7.5 18C3.2 16.9691 0 12.7227 0 8.18182V3.27273L7.5 0L15 3.27273ZM12.5 9L10.7 4.90909C10.5333 4.43455 10.0667 4.09091 9.51667 4.09091H5.35C4.8 4.09091 4.33333 4.43455 4.16667 4.90909L2.5 9V12.2727C2.5 12.7227 2.875 13.0909 3.33333 13.0909H4.16667C4.625 13.0909 5 12.7227 5 12.2727V11.4545H10V12.2727C10 12.7227 10.375 13.0909 10.8333 13.0909H11.6667C12.125 13.0909 12.5 12.7227 12.5 12.2727V9Z" fill="#C20C0C"/>
</svg>
