<svg width="18" height="14" viewBox="0 0 18 14" fill="none" xmlns="http://www.w3.org/2000/svg">
<path d="M17.7061 7.47944C17.896 7.28708 18.0017 7.02716 18.0001 6.75685C17.9984 6.48653 17.8894 6.22794 17.6971 6.03795L11.8944 0.306743C11.7998 0.209959 11.6868 0.132993 11.5621 0.0803364C11.4374 0.0276795 11.3035 0.000385951 11.1681 4.84513e-05C11.0327 -0.000289049 10.8987 0.0263365 10.7737 0.0783709C10.6487 0.130405 10.5354 0.206807 10.4402 0.303118C10.3451 0.399428 10.2701 0.513719 10.2197 0.639321C10.1692 0.764924 10.1442 0.899323 10.1462 1.03468C10.1482 1.17003 10.1772 1.30362 10.2314 1.42767C10.2856 1.55171 10.3639 1.66372 10.4619 1.75716L14.5136 5.75897L1.01323 5.84263C0.742861 5.8443 0.484229 5.95332 0.294232 6.14568C0.104236 6.33805 -0.00156115 6.59801 0.000114169 6.86838C0.00178949 7.13875 0.1108 7.39738 0.303166 7.58738C0.495531 7.77738 0.755495 7.88317 1.02587 7.8815L14.5262 7.79785L10.5244 11.8496C10.3399 12.043 10.2388 12.3011 10.2427 12.5684C10.2467 12.8357 10.3555 13.0907 10.5457 13.2786C10.7359 13.4664 10.9922 13.572 11.2595 13.5727C11.5269 13.5734 11.7837 13.469 11.9748 13.2821L17.7061 7.47944Z" fill="white"/>
</svg>
