<svg width="20" height="20" viewBox="0 0 20 20" fill="none" xmlns="http://www.w3.org/2000/svg">
<path d="M19 16.0188H12.82C12.6707 15.5989 12.4299 15.2176 12.1151 14.9024C11.8003 14.5873 11.4194 14.3462 11 14.1967V11.013H18C18.2652 11.013 18.5196 10.9075 18.7071 10.7197C18.8946 10.532 19 10.2773 19 10.0118C19 9.74625 18.8946 9.49159 18.7071 9.30384C18.5196 9.11608 18.2652 9.0106 18 9.0106H17V3.00353C17 2.20695 16.6839 1.44299 16.1213 0.879714C15.5587 0.316443 14.7956 0 14 0H6C5.20435 0 4.44129 0.316443 3.87868 0.879714C3.31607 1.44299 3 2.20695 3 3.00353V9.0106H2C1.73478 9.0106 1.48043 9.11608 1.29289 9.30384C1.10536 9.49159 1 9.74625 1 10.0118C1 10.2773 1.10536 10.532 1.29289 10.7197C1.48043 10.9075 1.73478 11.013 2 11.013H9V14.1967C8.5806 14.3462 8.19969 14.5873 7.8849 14.9024C7.57011 15.2176 7.32932 15.5989 7.18 16.0188H1C0.734784 16.0188 0.48043 16.1243 0.292893 16.3121C0.105357 16.4998 0 16.7545 0 17.02C0 17.2855 0.105357 17.5402 0.292893 17.728C0.48043 17.9157 0.734784 18.0212 1 18.0212H7.18C7.3902 18.601 7.77363 19.102 8.27816 19.456C8.7827 19.8101 9.38388 20 10 20C10.6161 20 11.2173 19.8101 11.7218 19.456C12.2264 19.102 12.6098 18.601 12.82 18.0212H19C19.2652 18.0212 19.5196 17.9157 19.7071 17.728C19.8946 17.5402 20 17.2855 20 17.02C20 16.7545 19.8946 16.4998 19.7071 16.3121C19.5196 16.1243 19.2652 16.0188 19 16.0188ZM5 9.0106V3.00353C5 2.738 5.10536 2.48335 5.29289 2.29559C5.48043 2.10784 5.73478 2.00236 6 2.00236H14C14.2652 2.00236 14.5196 2.10784 14.7071 2.29559C14.8946 2.48335 15 2.738 15 3.00353V9.0106H5ZM10 18.0212C9.80222 18.0212 9.60888 17.9625 9.44443 17.8525C9.27998 17.7425 9.15181 17.5861 9.07612 17.4032C9.00043 17.2202 8.98063 17.0189 9.01921 16.8247C9.0578 16.6305 9.15304 16.4521 9.29289 16.3121C9.43275 16.1721 9.61093 16.0767 9.80491 16.0381C9.99889 15.9994 10.2 16.0193 10.3827 16.0951C10.5654 16.1708 10.7216 16.2992 10.8315 16.4638C10.9414 16.6284 11 16.822 11 17.02C11 17.2855 10.8946 17.5402 10.7071 17.728C10.5196 17.9157 10.2652 18.0212 10 18.0212Z" fill="#C20C0C"/>
</svg>
