<svg width="17" height="17" viewBox="0 0 17 17" fill="none" xmlns="http://www.w3.org/2000/svg">
<path d="M14.1343 4.3591C13.0387 3.38448 11.6447 2.72124 10.1278 2.45293C8.61094 2.18462 7.03906 2.32326 5.61026 2.85137C4.18145 3.37949 2.95964 4.27345 2.09877 5.42061C1.23791 6.56778 0.776504 7.91683 0.772704 9.29777" stroke="#C20C0C" stroke-width="1.5" stroke-miterlimit="10" stroke-linecap="round"/>
<path d="M13.5037 0.772956L14.282 3.5898C14.3178 3.71256 14.3254 3.84053 14.3043 3.96597C14.2832 4.09142 14.2338 4.21174 14.1591 4.31966C14.0844 4.42758 13.986 4.52085 13.8698 4.59383C13.7537 4.66681 13.6221 4.71799 13.4831 4.74427L10.3289 5.44849" stroke="#C20C0C" stroke-width="1.5" stroke-linecap="round" stroke-linejoin="round"/>
<path d="M2.86444 12.6408C3.95991 13.6157 5.35402 14.2792 6.87106 14.5477C8.38811 14.8162 9.96019 14.6776 11.3892 14.1494C12.8182 13.6213 14.0402 12.7272 14.9011 11.5799C15.762 10.4325 16.2233 9.08326 16.2269 7.70214" stroke="#C20C0C" stroke-width="1.5" stroke-miterlimit="10" stroke-linecap="round"/>
<path d="M3.49483 16.2271L2.71656 13.4103C2.68086 13.2875 2.67341 13.1595 2.69464 13.034C2.71588 12.9086 2.76537 12.7883 2.84012 12.6804C2.91486 12.5725 3.01332 12.4792 3.12955 12.4062C3.24578 12.3333 3.37736 12.2821 3.51635 12.2558L6.66965 11.5516" stroke="#C20C0C" stroke-width="1.5" stroke-linecap="round" stroke-linejoin="round"/>
</svg>
