<svg width="16" height="16" viewBox="0 0 16 16" fill="none" xmlns="http://www.w3.org/2000/svg">
<path d="M7.23139 4.19068C7.15171 3.96535 7.00374 3.77017 6.80789 3.63209C6.61204 3.494 6.37797 3.4198 6.13796 3.41974H5.23933C4.98441 3.42045 4.7387 3.51474 4.54928 3.68455C4.35985 3.85437 4.24002 4.08776 4.21274 4.34005C4.18545 4.59233 4.25263 4.84577 4.4014 5.05182C4.55018 5.25786 4.77009 5.40205 5.01902 5.45675L6.38494 5.75451C6.66443 5.81522 6.91151 5.97663 7.07866 6.2077C7.24582 6.43877 7.32126 6.72319 7.29047 7.00628C7.25969 7.28936 7.12485 7.55112 6.91189 7.74124C6.69893 7.93136 6.42287 8.0364 6.1368 8.03619H5.3634C5.12368 8.03629 4.88981 7.96243 4.694 7.82478C4.49818 7.68713 4.35004 7.49245 4.26998 7.26755M5.75184 3.41974V2.26562M5.75184 9.1903V8.03619M7.96304 15.4998V9.44074C7.96304 9.05813 8.11575 8.69119 8.38756 8.42064C8.65938 8.15009 9.02804 7.9981 9.41244 7.9981C9.79685 7.9981 10.1655 8.15009 10.4373 8.42064C10.7091 8.69119 10.8618 9.05813 10.8618 9.44074V12.6145H13.1809C13.7959 12.6145 14.3858 12.8577 14.8207 13.2906C15.2556 13.7235 15.4999 14.3106 15.4999 14.9228V15.4998" stroke="#C20C0C" stroke-linecap="round" stroke-linejoin="round"/>
<path d="M5.75307 10.9586C4.68327 10.9584 3.63901 10.6332 2.7599 10.0264C1.8808 9.41965 1.20875 8.5602 0.833609 7.56301C0.458469 6.56581 0.398117 5.47839 0.660622 4.44614C0.923128 3.41388 1.49598 2.48599 2.30259 1.78651C3.10919 1.08704 4.11111 0.649331 5.17438 0.531902C6.23766 0.414472 7.31161 0.622921 8.25265 1.12938C9.19369 1.63584 9.95698 2.41617 10.4404 3.36603C10.9239 4.3159 11.1045 5.39004 10.9581 6.44484" stroke="#C20C0C" stroke-linecap="round"/>
</svg>
