<svg width="16" height="16" viewBox="0 0 16 16" fill="none" xmlns="http://www.w3.org/2000/svg">
<path d="M14.0937 11.6874C13.5974 11.1874 12.3956 10.4577 11.8124 10.1636C11.0531 9.78113 10.9906 9.74988 10.3937 10.1933C9.99556 10.4893 9.73087 10.7536 9.26494 10.6543C8.799 10.5549 7.7865 9.99457 6.89993 9.11082C6.01337 8.22707 5.42056 7.18519 5.32087 6.72082C5.22118 6.25644 5.48993 5.99488 5.78306 5.59582C6.19618 5.03332 6.16493 4.93957 5.81181 4.18019C5.5365 3.58957 4.78556 2.39894 4.28368 1.90519C3.74681 1.37488 3.74681 1.46863 3.40087 1.61238C3.11923 1.73085 2.84903 1.87489 2.59368 2.04269C2.09368 2.37488 1.81618 2.65082 1.62212 3.0655C1.42806 3.48019 1.34087 4.45238 2.34306 6.273C3.34525 8.09363 4.04837 9.02457 5.50368 10.4758C6.959 11.9271 8.07806 12.7074 9.714 13.6249C11.7377 14.7583 12.514 14.5374 12.9299 14.3436C13.3459 14.1499 13.6231 13.8749 13.9559 13.3749C14.1241 13.12 14.2685 12.8501 14.3871 12.5686C14.5312 12.2239 14.6249 12.2239 14.0937 11.6874Z" stroke="#C20C0C" stroke-miterlimit="10"/>
</svg>
